<svg width="1648" height="743" viewBox="0 0 1648 743" fill="none" xmlns="http://www.w3.org/2000/svg">
<rect x="4" y="4" width="1640" height="735" stroke="#8B3DFF" stroke-width="8"/>
<path d="M1005.17 469.826L892.276 560.634C884.796 566.651 873.69 564.55 868.923 556.196L843.286 511.298C835.667 497.954 821.281 489.715 805.684 489.715C805.569 489.715 805.446 489.715 805.339 489.715H804.45C781.411 489.715 759.276 482.764 740.414 469.596C722.05 456.774 708.085 438.969 700.03 418.122C697.233 410.871 696.022 403.222 696.336 395.658C660.191 380.382 635.166 343.8 637.105 301.738C639.397 251.996 679.673 211.712 729.415 209.428C749.144 208.523 767.669 213.551 783.358 222.871C791.474 216.31 801.208 212.187 811.425 210.899C812.091 209.52 812.804 208.163 813.578 206.83C829.106 180.142 863.466 171.052 890.161 186.588C938.592 214.77 968.691 268.505 968.691 326.847C968.691 342.183 966.399 357.811 961.869 373.285C958.382 385.196 961.172 397.581 969.342 406.418L1006.86 447.04C1012.99 453.708 1012.22 464.154 1005.17 469.826Z" fill="#A3CBE4"/>
<path d="M738.467 244.669C737.793 241.358 739.931 238.139 743.242 237.464C746.553 236.797 749.772 238.936 750.447 242.247L757.107 275.127C757.774 278.438 755.635 281.657 752.324 282.332C751.918 282.408 751.512 282.447 751.106 282.447C748.255 282.447 745.71 280.454 745.127 277.549L738.467 244.669ZM703.096 314.691L671.281 304.022C668.085 302.949 664.621 304.673 663.54 307.869C662.474 311.065 664.191 314.53 667.395 315.61L699.21 326.279C699.846 326.494 700.513 326.601 701.149 326.601C703.709 326.601 706.093 324.992 706.951 322.432C708.016 319.228 706.292 315.764 703.096 314.691ZM715.642 295.76C716.853 297.124 718.54 297.829 720.226 297.829C721.667 297.829 723.108 297.316 724.273 296.304C726.794 294.073 727.039 290.203 724.801 287.674L702.59 262.519C700.36 259.998 696.497 259.752 693.96 261.99C691.438 264.221 691.193 268.091 693.431 270.613L715.642 295.76ZM987.093 457.049C986.97 458.736 986.142 460.299 984.832 461.357L889.142 538.331C888.053 539.204 886.697 539.679 885.31 539.679C884.934 539.679 884.551 539.649 884.175 539.58C882.412 539.243 880.895 538.162 880.006 536.606L860.086 501.725C848.942 482.212 827.918 470.202 805.186 470.386H804.45C797.299 470.386 790.263 469.581 783.427 467.994C772.045 465.358 761.238 460.552 751.489 453.746C751.481 453.746 751.481 453.738 751.474 453.731C736.29 443.116 724.74 428.4 718.08 411.17C713.995 400.609 715.068 388.752 720.862 379.087C714.96 369.721 713.274 357.742 717.336 346.46C728.611 315.128 755.881 292.617 787.91 286.762C780.453 275.403 779.686 260.35 786.799 248.11C794.854 234.268 810.551 227.539 825.611 230.559C826.194 225.768 827.734 221.016 830.31 216.586C840.473 199.111 862.96 193.164 880.435 203.342C922.934 228.068 949.338 275.403 949.338 326.877C949.338 340.374 947.307 354.178 943.298 367.882C937.972 386.108 942.509 405.913 955.132 419.594L985.491 452.466C986.633 453.7 987.215 455.356 987.093 457.049ZM802.802 285.275C803.354 285.259 803.89 285.244 804.442 285.244C829.129 285.244 852.368 294.878 869.866 312.384C870.87 313.388 871.851 314.43 872.809 315.48C872.824 315.511 872.855 315.518 872.885 315.549C873.023 315.695 873.146 315.833 873.261 315.978C873.598 316.354 873.928 316.729 874.265 317.105C874.549 317.435 874.832 317.772 875.116 318.094C875.261 318.27 875.415 318.431 875.553 318.607C873.184 296.495 861.381 277.081 843.546 266.704C834.494 261.438 828.547 252.854 826.317 243.381C815.395 239.656 803.277 244.063 797.353 254.249C791.398 264.504 793.758 277.718 802.802 285.275ZM972.071 455.938L946.142 427.871C930.614 411.063 925.034 386.759 931.549 364.44C935.235 351.848 937.098 339.209 937.098 326.862C937.098 279.733 913.024 236.437 874.265 213.888C862.615 207.121 847.624 211.083 840.848 222.733C834.073 234.383 838.035 249.375 849.685 256.142C873.46 269.977 888.214 297.078 888.214 326.862C888.214 329.928 888.053 333.001 887.747 336.028C887.708 336.396 887.632 336.741 887.54 337.078C890.437 342.957 892.706 349.127 894.285 355.481C895.097 358.761 893.104 362.072 889.824 362.885C889.326 363.007 888.835 363.068 888.345 363.068C885.608 363.068 883.11 361.214 882.42 358.432C880.228 349.633 876.526 341.225 871.514 333.637C871.483 333.584 871.445 333.538 871.414 333.484C871 332.871 870.586 332.258 870.172 331.66C870.065 331.514 869.965 331.384 869.873 331.246C869.513 330.732 869.153 330.234 868.77 329.736C868.609 329.521 868.448 329.307 868.287 329.107C867.957 328.686 867.643 328.272 867.306 327.851C867.091 327.59 866.877 327.322 866.662 327.053C866.371 326.701 866.087 326.341 865.781 325.988C865.535 325.689 865.282 325.406 865.022 325.114C864.738 324.785 864.462 324.471 864.179 324.141C863.221 323.076 862.232 322.026 861.22 321.006C846.022 305.815 825.857 297.453 804.427 297.453C770.642 297.453 740.261 318.799 728.825 350.583C724.165 363.505 730.649 377.753 743.257 382.344C745.963 383.333 748.783 383.831 751.635 383.831C759.13 383.831 766.327 380.313 770.926 374.389C771.156 374.09 771.386 373.768 771.593 373.454C771.761 373.224 771.93 372.994 772.083 372.764C772.298 372.434 772.489 372.089 772.696 371.745C772.827 371.522 772.972 371.3 773.103 371.062C773.317 370.664 773.509 370.265 773.693 369.859C773.785 369.668 773.884 369.484 773.969 369.292C774.237 368.679 774.482 368.066 774.704 367.437C774.95 366.724 775.233 366.042 775.517 365.36C775.57 365.238 775.632 365.107 775.678 364.985C775.954 364.364 776.253 363.758 776.567 363.16C776.667 362.977 776.766 362.793 776.873 362.601C777.157 362.08 777.456 361.582 777.77 361.083C777.939 360.807 778.123 360.532 778.314 360.256C778.498 359.995 778.682 359.727 778.882 359.466C784.461 351.71 793.383 346.774 803.201 346.383C803.362 346.375 803.523 346.375 803.684 346.368C803.929 346.352 804.174 346.337 804.427 346.337C804.55 346.337 804.665 346.345 804.787 346.352C806.742 346.368 808.719 346.567 810.696 346.958C824.485 349.709 834.809 361.451 835.82 375.515C836.518 385.38 832.678 394.799 825.267 401.36C819.449 406.503 812.107 409.254 804.473 409.262C804.458 409.262 804.45 409.262 804.427 409.262C804.412 409.262 804.389 409.262 804.358 409.262C803.645 409.262 802.932 409.231 802.22 409.185C802.097 409.17 801.974 409.162 801.867 409.155C800.633 409.047 799.399 408.894 798.165 408.649C793.352 407.706 788.899 405.583 785.097 402.563C784.875 402.387 784.653 402.203 784.431 402.019C784.277 401.896 784.132 401.766 783.978 401.636C780.092 398.317 776.965 394.056 775.057 389.12C774.934 388.813 774.796 388.507 774.674 388.215C774.628 388.131 774.597 388.047 774.559 387.955C768.113 393.113 759.996 396.041 751.635 396.041C747.35 396.041 743.119 395.29 739.065 393.81C735.608 392.553 732.458 390.806 729.661 388.683C727.323 394.408 727.2 400.869 729.477 406.74C735.256 421.709 745.288 434.493 758.479 443.698C772.007 453.133 787.903 458.138 804.442 458.138H805.071C832.241 457.946 857.357 472.294 870.686 495.632L887.057 524.297L972.071 455.938ZM817.181 392.216C821.71 388.2 824.063 382.429 823.634 376.389C823.029 367.79 816.721 360.624 808.321 358.953C800.694 357.435 793.038 360.662 788.715 366.732C788.677 366.786 788.646 366.839 788.6 366.901C788.339 367.276 788.094 367.675 787.857 368.066C787.803 368.181 787.726 368.28 787.665 368.395C787.466 368.763 787.266 369.146 787.09 369.522C787.029 369.66 786.952 369.783 786.906 369.913C786.676 370.419 786.462 370.932 786.285 371.469C785.994 372.296 785.672 373.101 785.327 373.891C785.251 374.067 785.174 374.251 785.097 374.419C784.752 375.194 784.377 375.968 783.978 376.711C783.917 376.826 783.856 376.926 783.81 377.033C783.603 377.409 783.388 377.784 783.174 378.16C783.503 378.673 783.81 379.179 784.101 379.7C784.132 379.746 784.155 379.8 784.185 379.838C784.569 380.52 784.929 381.218 785.266 381.915C785.335 382.061 785.404 382.214 785.481 382.36C785.772 382.988 786.055 383.617 786.316 384.268C787.78 387.924 790.087 390.982 792.946 393.182C793.015 393.236 793.084 393.282 793.153 393.343C793.329 393.481 793.513 393.603 793.697 393.734C796.402 395.566 799.575 396.715 802.909 396.991C803.055 396.999 803.185 396.999 803.331 397.014C803.592 397.029 803.867 397.045 804.143 397.045C808.934 397.106 813.548 395.435 817.181 392.216Z" fill="black"/>
</svg>
