<svg width="1648" height="743" viewBox="0 0 1648 743" fill="none" xmlns="http://www.w3.org/2000/svg">
<path d="M161.995 385.981H139.918C139.547 385.61 139.327 385.39 138.97 385.033V343.574H128V394.752H161.995V385.981Z" fill="#000001"/>
<path d="M203.282 394.752V385.981H181.206L180.257 385.033V371.287H192.464V362.517H180.257V353.224C180.615 352.935 180.835 352.715 181.206 352.344H201.014V343.574H169.288V394.752H203.282Z" fill="#000001"/>
<path d="M223.881 352.344C224.239 352.715 224.39 352.935 224.761 353.224V394.752H235.717V353.224C236.088 352.935 236.239 352.715 236.597 352.344H250.563V343.574H209.915V352.344H223.881Z" fill="#000001"/>
<path d="M262.24 342.626H259.972L254.198 348.399V350.736L259.972 356.441L259.092 361.555L261.14 362.654L268.013 350.736V348.399L262.24 342.626Z" fill="#000001"/>
<path d="M298.936 380.647C298.936 384.661 295.637 386.93 292.2 386.93C288.764 386.93 284.599 383.782 282.55 379.988L273.78 385.541C277.877 391.906 284.75 395.7 292.2 395.7C301.122 395.7 309.892 390.586 309.892 379.905C309.892 361.416 284.461 365.582 284.461 357.76C284.461 353.952 287.815 351.615 291.252 351.615C294.688 351.615 298.854 354.763 300.902 358.557L309.686 353.004C305.589 346.639 298.716 342.845 291.252 342.845C282.331 342.845 273.492 347.89 273.492 358.488C273.492 376.908 298.936 372.812 298.936 380.647Z" fill="#000001"/>
<path d="M340.939 369.086C340.939 383.712 353.517 395.631 368.94 395.631C373.985 395.631 378.659 394.38 382.687 392.263V394.751H391.457V362.516H380.487V381.953C377.491 385.032 373.477 386.86 368.94 386.86C359.73 386.86 352.266 378.888 352.266 369.086C352.266 359.299 359.73 351.326 368.94 351.326C374.343 351.326 379.168 354.034 382.247 358.268L391.017 352.715C385.903 346.501 377.93 342.556 368.94 342.556C353.517 342.556 340.939 354.392 340.939 369.086Z" fill="#000001"/>
<path d="M398.742 369.17C398.742 383.782 411.237 395.7 426.743 395.7C442.166 395.7 454.744 383.865 454.744 369.17C454.744 354.544 442.235 342.626 426.743 342.626C411.32 342.626 398.742 354.475 398.742 369.17ZM426.743 351.396C435.953 351.396 443.417 359.369 443.417 369.17C443.417 378.957 435.953 386.93 426.743 386.93C417.533 386.93 410.069 378.957 410.069 369.17C410.069 359.369 417.533 351.396 426.743 351.396Z" fill="#000001"/>
<path d="M497.914 352.344C498.271 352.715 498.423 352.935 498.794 353.224V394.752H509.75V353.224C510.121 352.935 510.272 352.715 510.629 352.344H524.595V343.574H483.948V352.344H497.914Z" fill="#000001"/>
<path d="M528.231 369.17C528.231 383.782 540.726 395.7 556.232 395.7C571.655 395.7 584.233 383.865 584.233 369.17C584.233 354.544 571.724 342.626 556.232 342.626C540.809 342.626 528.231 354.475 528.231 369.17ZM556.232 351.396C565.442 351.396 572.906 359.369 572.906 369.17C572.906 378.957 565.442 386.93 556.232 386.93C547.022 386.93 539.558 378.957 539.558 369.17C539.558 359.369 547.022 351.396 556.232 351.396Z" fill="#000001"/>
<path d="M627.403 352.344C627.76 352.715 627.912 352.935 628.283 353.224V394.752H639.239V353.224C639.61 352.935 639.761 352.715 640.118 352.344H654.084V343.574H613.437V352.344H627.403Z" fill="#000001"/>
<path d="M661.377 394.752H672.346V371.287H696.54V394.752H707.509V343.574H696.54V362.517H672.346V343.574H661.377V394.752Z" fill="#000001"/>
<path d="M752.444 394.752V385.981H730.367L729.418 385.033V371.287H741.625V362.517H729.418V353.224C729.776 352.935 729.996 352.715 730.367 352.344H750.175V343.574H718.449V394.752H752.444Z" fill="#000001"/>
<path d="M788.309 343.574V394.752H817.547C835.678 394.752 838.167 372.744 824.929 366.75C833.63 359.946 830.565 343.574 815.801 343.574H788.309ZM799.278 385.033V371.287H815.361C824.709 371.287 824.709 385.981 815.361 385.981H800.227L799.278 385.033ZM799.278 353.224L800.227 352.344H813.602C820.626 352.344 820.626 362.517 813.602 362.517H799.278V353.224Z" fill="#000001"/>
<path d="M876.379 394.752V385.981H854.302L853.354 385.033V371.287H865.56V362.517H853.354V353.224C853.711 352.935 853.931 352.715 854.302 352.344H874.111V343.574H842.384V394.752H876.379Z" fill="#000001"/>
<path d="M894.779 394.752L897.418 387.727H914.807L917.886 394.752H929.873L906.916 342.626H905.239L897.335 348.042L899.164 352.207L883.012 394.752H894.779ZM900.772 378.957L905.459 366.531L910.944 378.957H900.772Z" fill="#000001"/>
<path d="M933.507 369.17C933.507 383.782 946.085 395.7 961.508 395.7C970.498 395.7 978.471 391.686 983.585 385.473L974.814 379.906C971.735 384.153 966.91 386.93 961.508 386.93C952.298 386.93 944.834 378.957 944.834 369.17C944.834 359.369 952.298 351.396 961.508 351.396C966.91 351.396 971.735 354.104 974.814 358.338L983.585 352.784C978.471 346.571 970.498 342.626 961.508 342.626C946.085 342.626 933.507 354.475 933.507 369.17Z" fill="#000001"/>
<path d="M990.874 394.752H1001.84V371.287H1026.04V394.752H1037.01V343.574H1026.04V362.517H1001.84V343.574H990.874V394.752Z" fill="#000001"/>
<path d="M1054.23 381.816H1051.89L1046.12 387.507V389.858L1051.89 395.631H1054.23L1059.93 389.858V387.507L1054.23 381.816ZM1047.51 343.574V350.667L1051.89 379.466H1054.23L1058.48 350.667V343.574H1047.51Z" fill="#000001"/>
<mask id="mask0_46_1432" style="mask-type:luminance" maskUnits="userSpaceOnUse" x="1223" y="227" width="297" height="290">
<path d="M1223.75 227H1519.35V516.565H1223.75V227Z" fill="white"/>
</mask>
<g mask="url(#mask0_46_1432)">
<path d="M1519.04 323.994V507.231C1519.04 511.905 1515.24 515.713 1510.56 515.713H1232.31C1227.62 515.713 1223.81 511.905 1223.81 507.231V432.397C1223.81 427.709 1227.62 423.902 1232.31 423.902H1309.67V387.24C1309.67 382.553 1313.47 378.759 1318.16 378.759H1332.73L1305.61 239.124C1304.29 232.265 1310.31 226.23 1317.18 227.564L1488.88 260.926C1496.64 262.424 1499.55 271.992 1493.97 277.573L1456.03 315.512H1510.56C1515.24 315.512 1519.04 319.32 1519.04 323.994Z" fill="#D83466"/>
</g>
<path d="M1500.33 330.111H1420.8L1471.88 279.03C1472.97 277.944 1473.36 276.363 1472.91 274.906C1472.47 273.463 1471.26 272.363 1469.76 272.074L1327.26 244.389C1325.91 244.128 1324.53 244.554 1323.56 245.517C1322.6 246.479 1322.17 247.867 1322.43 249.214L1350.13 391.708C1350.24 392.313 1350.5 392.863 1350.84 393.344H1328.38C1326.1 393.344 1324.26 395.186 1324.26 397.468V438.501H1242.52C1240.26 438.501 1238.41 440.343 1238.41 442.611V497.005C1238.41 499.287 1240.26 501.115 1242.52 501.115H1500.33C1502.62 501.115 1504.44 499.287 1504.44 497.005V334.221C1504.44 331.939 1502.62 330.111 1500.33 330.111ZM1331.68 253.627L1460.59 278.673L1356.73 382.539L1331.68 253.627ZM1410.24 340.668V393.344H1357.57L1410.24 340.668ZM1496.22 492.895H1246.65V446.735H1328.38C1330.65 446.735 1332.49 444.893 1332.49 442.611V401.578H1414.35C1416.63 401.578 1418.46 399.736 1418.46 397.468V338.331H1496.21V492.895H1496.22ZM1363.34 296.612C1363.34 293.395 1365.95 290.783 1369.18 290.783C1372.4 290.783 1375.01 293.395 1375.01 296.612C1375.01 299.828 1372.4 302.44 1369.18 302.44C1365.95 302.44 1363.34 299.828 1363.34 296.612ZM1383.2 276.363C1383.2 273.147 1385.81 270.535 1389.03 270.535C1392.25 270.535 1394.86 273.147 1394.86 276.363C1394.86 279.58 1392.25 282.192 1389.03 282.192C1385.81 282.192 1383.2 279.58 1383.2 276.363ZM1377.75 312.076C1385.32 311.183 1392.06 306.99 1396.74 300.268C1401.53 293.395 1403.59 284.735 1402.56 275.882C1402.28 273.628 1403.9 271.58 1406.16 271.318C1408.41 271.043 1410.46 272.666 1410.74 274.92C1412.01 285.779 1409.44 296.447 1403.51 304.969C1397.46 313.643 1388.66 319.073 1378.72 320.255C1378.56 320.269 1378.39 320.283 1378.23 320.283C1376.18 320.283 1374.4 318.743 1374.14 316.64C1373.87 314.385 1375.49 312.337 1377.75 312.076Z" fill="black"/>
</svg>
