<svg width="1648" height="743" viewBox="0 0 1648 743" fill="none" xmlns="http://www.w3.org/2000/svg">
<rect x="4" y="4" width="1640" height="735" stroke="#8B3DFF" stroke-width="8"/>
<mask id="mask0_46_586" style="mask-type:luminance" maskUnits="userSpaceOnUse" x="127" y="194" width="338" height="355">
<path d="M127 194H464.512V548.585H127V194Z" fill="white"/>
</mask>
<g mask="url(#mask0_46_586)">
<path d="M462.409 306.581L417.349 447.082C415.067 454.203 407.438 458.12 400.317 455.838L354.473 441.144C354.638 443.536 354.734 445.941 354.734 448.347C354.734 503.854 309.152 548.914 253.452 548.035C199.896 547.196 156.225 503.593 155.345 450.037C155.029 431.59 159.757 414.256 168.239 399.314L143.605 409.087C135.578 412.276 127.096 405.582 128.361 397.032L156.582 204.859C157.833 196.309 167.881 192.322 174.658 197.683L285.742 285.591L296.12 253.246C298.402 246.125 306.018 242.208 313.152 244.49L453.653 289.564C460.773 291.832 464.691 299.461 462.409 306.581Z" fill="#08AEBD"/>
</g>
<path d="M204.776 303.626C204.776 306.664 202.302 309.125 199.264 309.125C196.226 309.125 193.766 306.664 193.766 303.626C193.766 300.589 196.226 298.114 199.264 298.114C202.302 298.114 204.776 300.589 204.776 303.626ZM231.994 296.52C235.032 296.52 237.506 294.059 237.506 291.021C237.506 287.969 235.032 285.509 231.994 285.509C228.956 285.509 226.496 287.969 226.496 291.021C226.496 294.059 228.956 296.52 231.994 296.52ZM330.665 335.806C333.703 335.806 336.177 333.332 336.177 330.294C336.177 327.256 333.703 324.796 330.665 324.796C327.627 324.796 325.166 327.256 325.166 330.294C325.166 333.332 327.627 335.806 330.665 335.806ZM368.962 341.305C372 341.305 374.46 338.844 374.46 335.806C374.46 332.755 372 330.294 368.962 330.294C365.91 330.294 363.45 332.755 363.45 335.806C363.45 338.844 365.91 341.305 368.962 341.305ZM346.734 346.817C349.772 346.817 352.233 344.357 352.233 341.319C352.233 338.267 349.772 335.806 346.734 335.806C343.683 335.806 341.222 338.267 341.222 341.319C341.222 344.357 343.683 346.817 346.734 346.817ZM245.259 393.115C245.259 390.063 242.785 387.602 239.747 387.602C236.709 387.602 234.248 390.063 234.248 393.115C234.248 396.153 236.709 398.613 239.747 398.613C242.785 398.613 245.259 396.153 245.259 393.115ZM282.814 423.645C285.852 423.645 288.313 421.185 288.313 418.147C288.313 415.109 285.852 412.634 282.814 412.634C279.776 412.634 277.302 415.109 277.302 418.147C277.302 421.185 279.776 423.645 282.814 423.645ZM444.924 307.902L403.891 435.824C403.575 436.814 402.888 437.625 401.967 438.106C401.403 438.395 400.798 438.532 400.18 438.532C399.781 438.532 399.369 438.477 398.984 438.34L332.369 416.978C336.383 426.889 338.486 437.57 338.486 448.347C338.486 494.356 301.042 531.801 255.033 531.801C209.01 531.801 171.565 494.37 171.565 448.347C171.565 402.338 209.01 364.894 255.033 364.894C262.318 364.894 269.508 365.842 276.477 367.684L287.062 334.693L151.977 388.29C151.51 388.482 151.015 388.565 150.534 388.565C149.668 388.565 148.815 388.276 148.114 387.726C147.028 386.86 146.479 385.472 146.685 384.097L170.411 222.496C170.617 221.108 171.538 219.953 172.83 219.431C174.122 218.922 175.593 219.142 176.693 220.008L294.058 312.878L309.564 264.491C310.224 262.443 312.424 261.315 314.472 261.975L442.394 303.008C443.384 303.324 444.195 304.025 444.676 304.932C445.144 305.853 445.24 306.926 444.924 307.902ZM290.141 325.071L291.515 320.809L177.146 230.304L155.372 378.557L290.141 325.071ZM322.335 413.775L271.061 397.321C269.013 396.675 267.886 394.476 268.545 392.427L274.099 375.121C267.899 373.513 261.507 372.688 255.033 372.688C213.313 372.688 179.373 406.627 179.373 448.347C179.373 490.067 213.313 524.007 255.033 524.007C296.753 524.007 330.692 490.067 330.692 448.347C330.692 436.305 327.806 424.401 322.335 413.775ZM436.305 309.235L315.805 270.594L277.151 391.094L326.142 406.806C326.156 406.806 326.17 406.806 326.197 406.82L397.664 429.735L436.305 309.235ZM359.862 348.453C369.264 348.453 376.907 356.096 376.907 365.485C376.907 374.873 369.264 382.516 359.862 382.516C350.473 382.516 342.83 374.873 342.83 365.485C342.83 356.096 350.473 348.453 359.862 348.453ZM350.624 365.485C350.624 370.571 354.776 374.722 359.862 374.722C364.962 374.722 369.099 370.571 369.099 365.485C369.099 360.399 364.962 356.247 359.862 356.247C354.762 356.247 350.624 360.399 350.624 365.485ZM248.806 419.659C253.809 407.356 263.913 407.768 264.422 407.809C266.566 407.974 268.422 406.366 268.587 404.235C268.765 402.091 267.157 400.208 265.013 400.043C264.367 399.988 248.82 398.957 241.589 416.731C240.778 418.724 241.74 420.992 243.733 421.803C244.215 422.009 244.709 422.092 245.204 422.092C246.73 422.092 248.187 421.171 248.806 419.659ZM246.991 300.424C245.094 299.434 242.744 300.176 241.74 302.059C241.438 302.65 233.864 316.356 211.182 311.462C209.079 311.008 207.003 312.342 206.563 314.445C206.11 316.548 207.443 318.624 209.546 319.077C213.602 319.957 217.272 320.328 220.598 320.328C240.902 320.328 248.311 306.321 248.682 305.633C249.644 303.723 248.888 301.413 246.991 300.424ZM248.888 436.333L275.336 429.694C277.412 429.171 279.515 430.422 280.051 432.498L282.938 443.577C285.302 452.98 279.584 462.52 270.209 464.884C268.779 465.241 267.349 465.406 265.947 465.406C258.098 465.406 250.936 460.087 248.943 452.141L246.07 441.089C245.809 440.086 245.96 439.013 246.496 438.12C247.019 437.226 247.885 436.594 248.888 436.333ZM254.607 442.945L256.49 450.217C257.81 455.454 263.102 458.629 268.312 457.324C273.522 456.018 276.683 450.725 275.391 445.515L273.494 438.202L254.607 442.945Z" fill="black"/>
<path d="M579 352.629V403.806H600.059C636.679 403.806 636.679 352.629 600.059 352.629H579ZM589.969 394.088V362.279C590.327 361.99 590.478 361.77 590.835 361.399H600.059C621.696 361.399 621.696 395.036 600.059 395.036H590.835C590.478 394.665 590.327 394.445 589.969 394.088Z" fill="#000001"/>
<path d="M634.83 403.806H645.799V352.629H634.83V403.806Z" fill="#000001"/>
<path d="M656.752 352.629V403.806H677.811C714.431 403.806 714.431 352.629 677.811 352.629H656.752ZM667.721 394.088V362.279C668.079 361.99 668.23 361.77 668.587 361.399H677.811C699.448 361.399 699.448 395.036 677.811 395.036H668.587C668.23 394.665 668.079 394.445 667.721 394.088Z" fill="#000001"/>
<path d="M761.774 389.703C761.774 393.717 758.475 395.985 755.039 395.985C751.602 395.985 747.437 392.837 745.389 389.043L736.619 394.597C740.715 400.961 747.588 404.755 755.039 404.755C763.96 404.755 772.73 399.642 772.73 388.961C772.73 370.472 747.299 374.637 747.299 366.816C747.299 363.008 750.653 360.671 754.09 360.671C757.527 360.671 761.692 363.819 763.74 367.613L772.524 362.059C768.427 355.695 761.554 351.901 754.09 351.901C745.169 351.901 736.33 356.946 736.33 367.544C736.33 385.964 761.774 381.868 761.774 389.703Z" fill="#000001"/>
<path d="M778.201 378.225C778.201 392.837 790.696 404.755 806.202 404.755C821.625 404.755 834.203 392.919 834.203 378.225C834.203 363.599 821.694 351.681 806.202 351.681C790.779 351.681 778.201 363.53 778.201 378.225ZM806.202 360.451C815.412 360.451 822.876 368.424 822.876 378.225C822.876 388.012 815.412 395.985 806.202 395.985C796.992 395.985 789.528 388.012 789.528 378.225C789.528 368.424 796.992 360.451 806.202 360.451Z" fill="#000001"/>
<path d="M848.428 403.806L851.136 374.568L864.883 404.755H873.653L886.67 372.08L889.447 403.806H900.485L896.018 352.629H884.98L870.147 389.84L853.116 352.629H844.263L839.658 403.806H848.428Z" fill="#000001"/>
<path d="M943.587 403.806V395.036H921.511L920.562 394.088V380.341H932.769V371.571H920.562V362.279C920.92 361.99 921.14 361.77 921.511 361.399H941.319V352.629H909.593V403.806H943.587Z" fill="#000001"/>
<path d="M950.22 378.225C950.22 392.837 962.715 404.755 978.221 404.755C993.645 404.755 1006.22 392.919 1006.22 378.225C1006.22 363.599 993.713 351.681 978.221 351.681C962.798 351.681 950.22 363.53 950.22 378.225ZM978.221 360.451C987.431 360.451 994.895 368.424 994.895 378.225C994.895 388.012 987.431 395.985 978.221 395.985C969.011 395.985 961.547 388.012 961.547 378.225C961.547 368.424 969.011 360.451 978.221 360.451Z" fill="#000001"/>
<path d="M1013.51 403.806H1024.48V371.64L1047.21 403.806H1058.17V352.629H1047.21V384.795L1024.48 352.629H1013.51V403.806Z" fill="#000001"/>
<path d="M1103.11 403.806V395.036H1081.03L1080.09 394.088V380.341H1092.29V371.571H1080.09V362.279C1080.44 361.99 1080.66 361.77 1081.03 361.399H1100.84V352.629H1069.12V403.806H1103.11Z" fill="#000001"/>
<path d="M1162.59 389.703C1162.59 393.717 1159.29 395.985 1155.86 395.985C1152.42 395.985 1148.25 392.837 1146.21 389.043L1137.44 394.597C1141.53 400.961 1148.41 404.755 1155.86 404.755C1164.78 404.755 1173.55 399.642 1173.55 388.961C1173.55 370.472 1148.12 374.637 1148.12 366.816C1148.12 363.008 1151.47 360.671 1154.91 360.671C1158.34 360.671 1162.51 363.819 1164.56 367.613L1173.34 362.059C1169.25 355.695 1162.37 351.901 1154.91 351.901C1145.99 351.901 1137.15 356.946 1137.15 367.544C1137.15 385.964 1162.59 381.868 1162.59 389.703Z" fill="#000001"/>
<path d="M1190.79 403.807L1193.42 396.782H1210.81L1213.89 403.807H1225.88L1202.92 351.681H1201.25L1193.34 357.097L1195.17 361.262L1179.02 403.807H1190.79ZM1196.78 388.012L1201.47 375.585L1206.95 388.012H1196.78Z" fill="#000001"/>
<path d="M1229.51 352.629L1245.97 380.259V403.806H1256.92V376.905L1273.16 352.629H1262.56L1251.81 368.712L1242.31 352.629H1229.51Z" fill="#000001"/>
<path d="M1329.64 389.703C1329.64 393.717 1326.34 395.985 1322.91 395.985C1319.47 395.985 1315.3 392.837 1313.26 389.043L1304.49 394.597C1308.58 400.961 1315.46 404.755 1322.91 404.755C1331.83 404.755 1340.6 399.642 1340.6 388.961C1340.6 370.472 1315.17 374.637 1315.17 366.816C1315.17 363.008 1318.52 360.671 1321.96 360.671C1325.39 360.671 1329.56 363.819 1331.61 367.613L1340.39 362.059C1336.3 355.695 1329.42 351.901 1321.96 351.901C1313.04 351.901 1304.2 356.946 1304.2 367.544C1304.2 385.964 1329.64 381.868 1329.64 389.703Z" fill="#000001"/>
<path d="M1349.73 383.998C1349.73 395.476 1359 404.755 1370.48 404.755C1381.89 404.755 1391.17 395.476 1391.17 383.998V352.629H1380.21V384.067C1380.21 392.039 1375.31 395.985 1370.48 395.985C1365.59 395.985 1360.69 392.039 1360.69 384.067V352.629H1349.73V383.998Z" fill="#000001"/>
<path d="M1402.12 403.806H1413.09V380.341H1421.49L1434.95 403.806H1447.59L1435.74 383.187C1433.56 382.678 1431.14 381.798 1428.65 380.341C1448.47 380.341 1448.47 352.629 1428.65 352.629H1402.12V403.806ZM1414.04 361.399H1427.41C1434.44 361.399 1434.44 371.571 1427.41 371.571H1413.09V362.279L1414.04 361.399Z" fill="#000001"/>
<path d="M1454.88 403.806H1465.85V380.341H1478.06V371.571H1465.85V362.279C1466.21 361.99 1466.36 361.77 1466.72 361.399H1486.61V352.629H1454.88V403.806Z" fill="#000001"/>
<path d="M1491.34 363.227L1501.43 365.866C1502.6 361.921 1504.87 360.313 1506.83 360.313C1508.75 360.313 1510.27 361.839 1510.27 364.327C1510.27 373.977 1502.97 380.341 1502.97 388.52H1509.54C1511.88 378.65 1521.24 373.757 1521.24 362.87C1521.24 355.557 1514.67 351.309 1507.65 351.309C1501.06 351.309 1494.05 354.966 1491.34 363.227ZM1499.23 398.912L1505.02 404.686H1507.27L1513.06 398.912V396.562L1507.27 390.871H1505.02L1499.23 396.562V398.912Z" fill="#000001"/>
</svg>
